<?xml version="1.0" encoding="iso-8859-1"?>
<!-- Generator: Adobe Illustrator 19.0.0, SVG Export Plug-In . SVG Version: 6.00 Build 0)  -->
<svg version="1.1" id="Layer_1" xmlns="http://www.w3.org/2000/svg" xmlns:xlink="http://www.w3.org/1999/xlink" x="0px" y="0px"
	 viewBox="0 0 512 512" style="enable-background:new 0 0 512 512;" xml:space="preserve">
<circle style="fill:#FFC200;" cx="256" cy="256" r="256"/>
<g>
	<path style="fill:#F2B800;" d="M256,0c-6.74,0-13.392,0.34-20,0.852C368.02,11.068,472,121.352,472,256S368.02,500.932,236,511.148
		c6.608,0.512,13.26,0.852,20,0.852c141.384,0,256-114.612,256-256S397.384,0,256,0z"/>
	<path style="fill:#F2B800;" d="M256,461.916c-61.608,0-120.028-26.048-160.28-71.448c-3.94-4.44-5.92-10.164-5.568-16.1
		c0.36-5.928,3.004-11.376,7.448-15.32c4.08-3.612,9.32-5.604,14.768-5.604c6.368,0,12.436,2.736,16.66,7.5
		c31.812,35.884,78.088,56.456,126.968,56.456c48.752,0,94.932-20.464,126.696-56.156c4.232-4.744,10.288-7.456,16.636-7.456
		c5.452,0,10.712,2,14.788,5.624c4.444,3.952,7.08,9.4,7.42,15.332c0.352,5.936-1.64,11.656-5.584,16.096
		C375.752,436.008,317.444,461.916,256,461.916z"/>
</g>
<path style="fill:#F5F5F5;" d="M256,450.78c-58.424,0-113.808-24.676-151.952-67.708c-4.08-4.592-3.656-11.628,0.94-15.712
	c4.604-4.084,11.636-3.656,15.712,0.944c33.924,38.268,83.244,60.216,135.3,60.216c51.928,0,101.14-21.828,135.012-59.892
	c4.084-4.584,11.116-5,15.716-0.916c4.592,4.084,5,11.12,0.916,15.716C369.548,426.236,314.28,450.78,256,450.78z"/>
<g>
	<path style="fill:#263740;" d="M204,228c-6.624,0-12-5.376-12-12c0-19.852-16.148-36-36-36s-36,16.148-36,36
		c0,6.624-5.376,12-12,12s-12-5.376-12-12c0-33.084,26.916-60,60-60s60,26.916,60,60C216,222.624,210.624,228,204,228z"/>
	<path style="fill:#263740;" d="M404,228c-6.624,0-12-5.376-12-12c0-19.852-16.148-36-36-36s-36,16.148-36,36
		c0,6.624-5.376,12-12,12s-12-5.376-12-12c0-33.084,26.916-60,60-60s60,26.916,60,60C416,222.624,410.624,228,404,228z"/>
</g>
<path style="fill:#E16B5A;" d="M256,120c72.8,0,144.292-1.48,214.08-4.328C424.328,46.024,345.556,0,256,0
	S87.672,46.024,41.924,115.672C111.708,118.52,183.2,120,256,120z"/>
<path style="fill:#CC6152;" d="M446.032,116.532c8.008-0.292,16.08-0.536,24.048-0.86C424.328,46.024,345.556,0,256,0
	c-3.732,0-7.436,0.108-11.128,0.264C328.628,3.916,401.92,49.172,446.032,116.532z"/>
<g>
	<path style="fill:#F5F5F5;" d="M116.908,118.116c28.196,0.744,56.572,1.32,85.236,1.604C214.872,46.704,234.26,0,256,0
		C199.224,0,148.808,46.372,116.908,118.116z"/>
	<path style="fill:#F5F5F5;" d="M309.86,119.728c28.664-0.284,57.04-0.868,85.236-1.604C363.192,46.372,312.772,0,256,0
		C277.744,0,297.128,46.704,309.86,119.728z"/>
</g>
<g>
</g>
<g>
</g>
<g>
</g>
<g>
</g>
<g>
</g>
<g>
</g>
<g>
</g>
<g>
</g>
<g>
</g>
<g>
</g>
<g>
</g>
<g>
</g>
<g>
</g>
<g>
</g>
<g>
</g>
</svg>
